<svg width="56" height="56" fill="none" xmlns="http://www.w3.org/2000/svg"><path opacity=".7" d="M23.702 26.833c-2.181-1.867-3.245-4.142-3.193-6.825.053-2.71 1.13-4.84 3.232-6.392 1.892-1.367 4.166-1.867 6.82-1.499 2.654.368 4.677 1.434 6.07 3.196.447.552.42 1.315-.079 2.288-.473.973-1.104 1.644-1.892 2.012-.788.369-1.537.224-2.247-.434a9.04 9.04 0 0 0-1.458-1.578c-.578-.5-1.209-.933-1.892-1.302-.683-.368-1.38-.5-2.09-.394-.683.105-1.274.486-1.773 1.144-.788 1.026-.539 2.34.749 3.945 1.314 1.578 2.667 2.591 4.06 3.038.394-.21.893-.394 1.498-.552a8.871 8.871 0 0 1 1.852-.355c.63-.053 1.157.04 1.577.276.447.237.657.631.63 1.183 0 1.316-.617 2.644-1.852 3.985-.552.421-1.038.737-1.459.947-.42.21-1.064.316-1.93.316-.842-.027-1.761-.29-2.76-.79a10.833 10.833 0 0 0-4.967 2.762c-1.392 1.342-1.8 2.71-1.222 4.104a4.58 4.58 0 0 0 2.05 2.288c.972.5 2.09.723 3.35.67 1.63-.052 3.299-.538 5.006-1.46 1.709-.946 3.088-2.117 4.14-3.51.998-1.368 1.734-2.434 2.207-3.196.315-.605.683-.881 1.103-.829.42.027.67.355.75.987.078.447-.093 1.183-.513 2.209a18.737 18.737 0 0 1-2.483 4.3c-.999 1.263-2.076 2.315-3.233 3.157-1.13.815-2.325 1.499-3.587 2.051a15.973 15.973 0 0 1-3.784 1.144c-1.235.21-2.417.303-3.547.277-1.104 0-2.129-.119-3.075-.355-.946-.21-1.787-.724-2.522-1.54-.736-.84-1.13-1.735-1.183-2.682-.236-2.762.29-5.063 1.577-6.904 1.314-1.868 3.337-3.762 6.07-5.682z" fill="#EE322C"/></svg>