<svg width="24" height="25" fill="none" xmlns="http://www.w3.org/2000/svg"><path fill-rule="evenodd" clip-rule="evenodd" d="M6.697 4.354A7.5 7.5 0 0 1 19.5 9.657a6.884 6.884 0 0 1-2.595 5.708c-.757.705-1.155 1.102-1.155 1.792h-1.5c0-1.368.8-2.116 1.589-2.851l.046-.044A5.399 5.399 0 0 0 18 9.657a6 6 0 1 0-12 0 5.4 5.4 0 0 0 2.108 4.605c.81.743 1.642 1.515 1.642 2.895h-1.5c0-.69-.405-1.087-1.155-1.785A6.892 6.892 0 0 1 4.5 9.657a7.5 7.5 0 0 1 2.197-5.303zm9.053 14.303h-7.5v1.5h7.5v-1.5zm-1.5 3h-4.5v1.5h4.5v-1.5z" fill="#FFDE00"/></svg>