<svg width="476" height="92" fill="none" xmlns="http://www.w3.org/2000/svg"><path d="M144.69 48.07h-1.662l4.806-13.09h1.637l4.807 13.09h-1.662l-3.912-11.02h-.103l-3.911 11.02zm.613-5.113h6.699v1.406h-6.699v-1.406zm14.517 5.318c-.819 0-1.541-.207-2.167-.62-.627-.418-1.117-1.006-1.471-1.764-.353-.763-.53-1.664-.53-2.704 0-1.031.177-1.926.53-2.685.354-.758.846-1.344 1.477-1.758.631-.413 1.359-.62 2.186-.62.639 0 1.144.107 1.515.32.375.209.661.447.857.716.2.264.355.481.466.652h.128v-4.833h1.509V48.07h-1.458v-1.508h-.179a9.578 9.578 0 0 1-.473.677c-.204.269-.496.51-.876.723-.379.208-.884.313-1.514.313zm.204-1.355c.605 0 1.117-.158 1.534-.473.418-.32.735-.76.953-1.323.217-.567.326-1.221.326-1.963 0-.733-.107-1.374-.32-1.924-.213-.554-.528-.984-.946-1.291-.418-.311-.933-.467-1.547-.467-.639 0-1.172.165-1.598.493-.422.323-.739.764-.952 1.323-.209.554-.314 1.176-.314 1.866 0 .7.107 1.334.32 1.905.217.567.537 1.018.959 1.355.426.333.954.499 1.585.499zm10.975 1.355c-.818 0-1.54-.207-2.167-.62-.626-.418-1.116-1.006-1.47-1.764-.354-.763-.53-1.664-.53-2.704 0-1.031.176-1.926.53-2.685.354-.758.846-1.344 1.477-1.758.63-.413 1.359-.62 2.186-.62.639 0 1.144.107 1.515.32.375.209.66.447.856.716.201.264.356.481.467.652h.128v-4.833h1.508V48.07h-1.457v-1.508h-.179a9.927 9.927 0 0 1-.473.677c-.205.269-.497.51-.876.723-.379.208-.884.313-1.515.313zm.205-1.355c.605 0 1.116-.158 1.534-.473.417-.32.735-.76.952-1.323.218-.567.326-1.221.326-1.963 0-.733-.106-1.374-.319-1.924-.213-.554-.529-.984-.946-1.291-.418-.311-.934-.467-1.547-.467-.639 0-1.172.165-1.598.493-.422.323-.74.764-.953 1.323-.208.554-.313 1.176-.313 1.866 0 .7.107 1.334.32 1.905.217.567.537 1.018.959 1.355.426.333.954.499 1.585.499zm12.33 1.15v-9.818h1.457v1.534h.128a2.47 2.47 0 0 1 .991-1.22c.456-.295 1.004-.442 1.643-.442.647 0 1.187.147 1.617.441.435.29.773.697 1.016 1.221h.103c.251-.507.628-.91 1.131-1.208.503-.302 1.106-.454 1.809-.454.878 0 1.596.275 2.154.825.558.545.837 1.395.837 2.55v6.571h-1.508V41.5c0-.725-.198-1.243-.595-1.554a2.199 2.199 0 0 0-1.399-.467c-.691 0-1.226.21-1.605.627-.379.413-.569.937-.569 1.572v6.392h-1.534v-6.724c0-.558-.181-1.008-.543-1.349-.362-.345-.829-.518-1.4-.518-.392 0-.759.105-1.099.314-.337.208-.61.498-.819.869-.204.366-.306.79-.306 1.272v6.136h-1.509zm19.633.205c-.886 0-1.664-.211-2.333-.633-.665-.422-1.185-1.012-1.56-1.77-.37-.76-.556-1.645-.556-2.66 0-1.022.186-1.915.556-2.678.375-.763.895-1.355 1.56-1.777.669-.422 1.447-.633 2.333-.633.887 0 1.662.211 2.327.633.669.422 1.189 1.014 1.56 1.777.375.763.562 1.656.562 2.678 0 1.015-.187 1.9-.562 2.66-.371.758-.891 1.348-1.56 1.77-.665.422-1.44.633-2.327.633zm0-1.355c.673 0 1.227-.173 1.662-.518.435-.345.756-.799.965-1.361a5.208 5.208 0 0 0 .314-1.829c0-.656-.105-1.267-.314-1.834a3.09 3.09 0 0 0-.965-1.374c-.435-.35-.989-.525-1.662-.525-.673 0-1.227.175-1.662.525-.434.349-.756.807-.965 1.374a5.262 5.262 0 0 0-.313 1.834c0 .657.104 1.266.313 1.828.209.563.531 1.017.965 1.362.435.345.989.518 1.662.518zm6.752 1.15v-9.818h1.457v1.483h.102c.179-.486.503-.88.972-1.182a2.86 2.86 0 0 1 1.585-.454c.111 0 .25.002.416.006.166.004.292.01.377.02v1.533a4.388 4.388 0 0 0-.352-.057 3.447 3.447 0 0 0-.569-.045c-.477 0-.903.1-1.278.3a2.263 2.263 0 0 0-.882.819c-.213.345-.32.74-.32 1.182v6.213h-1.508zm10.515.205c-.946 0-1.762-.209-2.448-.627a4.198 4.198 0 0 1-1.579-1.764c-.367-.758-.55-1.64-.55-2.646s.183-1.892.55-2.66c.37-.77.886-1.371 1.547-1.802.664-.434 1.44-.652 2.326-.652.512 0 1.017.085 1.515.256.499.17.953.447 1.362.83.409.38.735.883.978 1.51.243.626.364 1.397.364 2.313v.64h-7.568v-1.304h6.034c0-.554-.111-1.049-.332-1.483a2.51 2.51 0 0 0-.934-1.03c-.4-.25-.873-.377-1.419-.377-.601 0-1.12.15-1.559.448a2.94 2.94 0 0 0-1.004 1.15c-.234.473-.351.98-.351 1.522v.869c0 .741.127 1.37.383 1.886.26.511.62.901 1.08 1.17.461.264.995.396 1.605.396a3.27 3.27 0 0 0 1.074-.166c.323-.115.603-.286.837-.512a2.33 2.33 0 0 0 .543-.856l1.458.409a3.241 3.241 0 0 1-.774 1.304c-.362.37-.809.66-1.342.869-.533.205-1.132.307-1.796.307zm14.311.025a3.987 3.987 0 0 1-1.693-.351 2.909 2.909 0 0 1-1.209-1.03c-.298-.451-.447-.996-.447-1.636 0-.562.111-1.018.332-1.367.222-.354.518-.631.889-.831.371-.2.78-.35 1.227-.448.452-.102.906-.183 1.362-.243.596-.076 1.08-.134 1.451-.172.375-.043.647-.113.818-.211.175-.098.262-.269.262-.512v-.05c0-.631-.173-1.122-.518-1.471-.341-.35-.858-.524-1.553-.524-.72 0-1.285.157-1.694.473-.409.315-.697.652-.863 1.01l-1.432-.512c.256-.596.597-1.06 1.023-1.393.43-.337.899-.571 1.406-.703a5.844 5.844 0 0 1 1.509-.205c.315 0 .677.039 1.086.115.414.073.812.224 1.196.454.388.23.709.578.965 1.042.256.465.383 1.087.383 1.867v6.468h-1.508v-1.33h-.077a2.64 2.64 0 0 1-.511.685c-.239.243-.556.45-.953.62-.396.17-.88.255-1.451.255zm.231-1.355c.596 0 1.099-.117 1.508-.351a2.39 2.39 0 0 0 .933-.908c.213-.37.32-.76.32-1.17v-1.38c-.064.076-.205.147-.422.21-.213.06-.46.114-.741.16a33.496 33.496 0 0 1-1.445.192 5.745 5.745 0 0 0-1.099.25c-.337.11-.61.279-.819.504-.204.222-.306.525-.306.908 0 .524.193.92.581 1.189.392.264.889.396 1.49.396zm11.011 1.33c-.92 0-1.713-.218-2.377-.652-.665-.435-1.176-1.033-1.534-1.796-.358-.763-.537-1.634-.537-2.615 0-.997.183-1.877.549-2.64.371-.767.887-1.365 1.547-1.796.665-.434 1.441-.652 2.327-.652.69 0 1.312.128 1.866.384a3.577 3.577 0 0 1 1.362 1.074c.354.46.573.997.658 1.61h-1.508c-.115-.447-.371-.843-.767-1.188-.392-.35-.921-.525-1.586-.525-.588 0-1.103.154-1.546.46-.439.303-.782.731-1.03 1.285-.242.55-.364 1.196-.364 1.937 0 .759.119 1.42.358 1.982.243.562.584.999 1.023 1.31.443.311.963.467 1.559.467.393 0 .748-.068 1.068-.205.32-.136.59-.332.812-.588.221-.256.379-.562.473-.92h1.508a3.488 3.488 0 0 1-1.956 2.665c-.545.269-1.18.403-1.905.403zm10.055 0c-.92 0-1.713-.218-2.378-.652-.664-.435-1.176-1.033-1.534-1.796-.358-.763-.537-1.634-.537-2.615 0-.997.184-1.877.55-2.64.371-.767.886-1.365 1.547-1.796.665-.434 1.44-.652 2.327-.652.69 0 1.312.128 1.866.384a3.577 3.577 0 0 1 1.362 1.074c.353.46.573.997.658 1.61h-1.509c-.115-.447-.37-.843-.767-1.188-.392-.35-.92-.525-1.585-.525-.588 0-1.104.154-1.547.46-.439.303-.782.731-1.029 1.285-.243.55-.364 1.196-.364 1.937 0 .759.119 1.42.358 1.982.243.562.584.999 1.023 1.31.443.311.963.467 1.559.467.392 0 .748-.068 1.068-.205a2.2 2.2 0 0 0 .811-.588 2.24 2.24 0 0 0 .473-.92h1.509a3.488 3.488 0 0 1-1.956 2.665c-.545.269-1.18.403-1.905.403zm10.183 0c-.946 0-1.762-.209-2.448-.627a4.198 4.198 0 0 1-1.579-1.764c-.367-.758-.55-1.64-.55-2.646s.183-1.892.55-2.66c.37-.77.886-1.371 1.547-1.802.664-.434 1.44-.652 2.326-.652.512 0 1.017.085 1.515.256.499.17.953.447 1.362.83.409.38.735.883.978 1.51.243.626.364 1.397.364 2.313v.64h-7.568v-1.304h6.034c0-.554-.111-1.049-.332-1.483a2.51 2.51 0 0 0-.934-1.03c-.4-.25-.873-.377-1.419-.377-.601 0-1.12.15-1.559.448a2.94 2.94 0 0 0-1.004 1.15c-.234.473-.351.98-.351 1.522v.869c0 .741.127 1.37.383 1.886.26.511.62.901 1.08 1.17.461.264.995.396 1.605.396a3.27 3.27 0 0 0 1.074-.166c.323-.115.603-.286.837-.512a2.33 2.33 0 0 0 .543-.856l1.458.409a3.241 3.241 0 0 1-.774 1.304c-.362.37-.809.66-1.342.869-.533.205-1.132.307-1.796.307zm7.868-6.11v5.905h-1.508v-9.818h1.457v1.534h.128c.23-.498.58-.899 1.048-1.202.469-.306 1.074-.46 1.816-.46.664 0 1.246.137 1.745.41.498.268.886.677 1.163 1.227.277.545.416 1.235.416 2.07v6.24h-1.509v-6.137c0-.771-.2-1.372-.601-1.803-.4-.434-.95-.652-1.649-.652a2.63 2.63 0 0 0-1.291.314 2.246 2.246 0 0 0-.889.914c-.217.4-.326.886-.326 1.457zm13.291-3.913v1.279h-5.088v-1.279h5.088zm-3.605-2.352h1.508v9.358c0 .426.062.746.186.959.128.208.29.35.486.422.2.068.411.102.632.102.167 0 .303-.009.409-.026l.256-.05.307 1.354a3.064 3.064 0 0 1-.428.115 3.162 3.162 0 0 1-.697.064c-.426 0-.844-.092-1.253-.275a2.491 2.491 0 0 1-1.01-.837c-.264-.375-.396-.848-.396-1.42V35.9zm15.207 2.352v1.279h-5.089v-1.279h5.089zM295.38 35.9h1.509v9.358c0 .426.062.746.185.959.128.208.29.35.486.422.2.068.411.102.633.102.166 0 .302-.009.409-.026l.256-.05.307 1.354a3.124 3.124 0 0 1-.429.115 3.146 3.146 0 0 1-.696.064c-.427 0-.844-.092-1.253-.275a2.485 2.485 0 0 1-1.01-.837c-.264-.375-.397-.848-.397-1.42V35.9zm9.758 12.375c-.886 0-1.664-.211-2.333-.633-.665-.422-1.185-1.012-1.56-1.77-.371-.76-.556-1.645-.556-2.66 0-1.022.185-1.915.556-2.678.375-.763.895-1.355 1.56-1.777.669-.422 1.447-.633 2.333-.633.886 0 1.662.211 2.327.633.669.422 1.188 1.014 1.559 1.777.375.763.563 1.656.563 2.678 0 1.015-.188 1.9-.563 2.66-.371.758-.89 1.348-1.559 1.77-.665.422-1.441.633-2.327.633zm0-1.355c.673 0 1.227-.173 1.662-.518.434-.345.756-.799.965-1.361a5.208 5.208 0 0 0 .313-1.829c0-.656-.104-1.267-.313-1.834a3.098 3.098 0 0 0-.965-1.374c-.435-.35-.989-.525-1.662-.525-.673 0-1.227.175-1.662.525a3.09 3.09 0 0 0-.965 1.374 5.262 5.262 0 0 0-.313 1.834c0 .657.104 1.266.313 1.828.209.563.53 1.017.965 1.362.435.345.989.518 1.662.518zm16.084-8.668v1.279h-5.088v-1.279h5.088zm-3.605-2.352h1.508v9.358c0 .426.062.746.186.959.127.208.289.35.485.422.201.068.412.102.633.102.166 0 .303-.009.409-.026l.256-.05.307 1.354a3.064 3.064 0 0 1-.428.115 3.162 3.162 0 0 1-.697.064c-.426 0-.844-.092-1.253-.275a2.491 2.491 0 0 1-1.01-.837c-.264-.375-.396-.848-.396-1.42V35.9zm7.593 6.264v5.906h-1.508V34.98h1.508v4.806h.128c.23-.507.576-.91 1.036-1.208.464-.302 1.082-.454 1.854-.454.669 0 1.255.134 1.757.403.503.264.893.671 1.17 1.22.281.546.422 1.24.422 2.085v6.238h-1.509v-6.136c0-.78-.202-1.383-.607-1.809-.4-.43-.956-.646-1.668-.646-.494 0-.938.105-1.33.314a2.293 2.293 0 0 0-.92.914c-.222.4-.333.886-.333 1.457zm13.243 6.11c-.946 0-1.762-.208-2.448-.626a4.205 4.205 0 0 1-1.579-1.764c-.366-.758-.549-1.64-.549-2.646s.183-1.892.549-2.66c.371-.77.887-1.371 1.547-1.802.665-.434 1.44-.652 2.327-.652.511 0 1.016.085 1.515.256.498.17.952.447 1.361.83.409.38.735.883.978 1.51.243.626.365 1.397.365 2.313v.64h-7.569v-1.304h6.034c0-.554-.11-1.049-.332-1.483a2.501 2.501 0 0 0-.933-1.03c-.401-.25-.874-.377-1.419-.377-.601 0-1.121.15-1.56.448a2.937 2.937 0 0 0-1.003 1.15c-.235.473-.352.98-.352 1.522v.869c0 .741.128 1.37.384 1.886.259.511.62.901 1.08 1.17.46.264.995.396 1.604.396.397 0 .754-.056 1.074-.166.324-.115.603-.286.837-.512.235-.23.416-.515.544-.856l1.457.409a3.228 3.228 0 0 1-.773 1.304c-.363.37-.81.66-1.343.869-.532.205-1.131.307-1.796.307zM181.509 61.98V75.07h-1.508V61.98h1.508zm2.763 13.091v-9.818h1.509v9.818h-1.509zm.767-11.454c-.294 0-.547-.1-.76-.3a.965.965 0 0 1-.314-.723c0-.281.105-.522.314-.722.213-.2.466-.3.76-.3s.546.1.755.3c.213.2.319.44.319.722a.956.956 0 0 1-.319.722c-.209.2-.461.3-.755.3zm5.013 5.548v5.906h-1.508v-9.818h1.457v1.534h.128c.23-.498.58-.899 1.048-1.201.469-.307 1.074-.46 1.816-.46.664 0 1.246.136 1.745.408.498.269.886.678 1.163 1.228.277.545.415 1.235.415 2.07v6.24h-1.508v-6.137c0-.771-.2-1.372-.601-1.803-.4-.434-.95-.652-1.649-.652a2.63 2.63 0 0 0-1.291.314 2.246 2.246 0 0 0-.889.914c-.217.4-.326.886-.326 1.457zm10.427 2.327-.025-1.867h.307l4.295-4.372h1.866l-4.576 4.628h-.128l-1.739 1.61zm-1.406 3.58V61.978h1.509V75.07h-1.509zm6.239 0-3.836-4.859 1.074-1.048 4.679 5.906h-1.917zm8.103-9V64.92c0-.35.062-.72.186-1.113a4.77 4.77 0 0 1 .549-1.144c.243-.37.535-.692.876-.965l.818.665a8.525 8.525 0 0 0-.703 1.202 3.064 3.064 0 0 0-.294 1.33v1.175h-1.432zm3.273 0V64.92c0-.35.062-.72.185-1.113.128-.396.311-.777.55-1.144.243-.37.535-.692.876-.965l.818.665a8.43 8.43 0 0 0-.703 1.202 3.064 3.064 0 0 0-.294 1.33v1.175h-1.432zm11.458-.819a2.007 2.007 0 0 0-.934-1.508c-.545-.358-1.214-.537-2.007-.537-.579 0-1.086.093-1.521.28-.43.188-.767.446-1.01.774a1.852 1.852 0 0 0-.358 1.119c0 .35.083.65.249.901.171.247.388.454.652.62.265.162.542.296.831.403.29.102.556.185.799.25l1.33.357c.341.09.72.213 1.138.371.422.158.824.373 1.208.646.388.268.707.613.959 1.035.251.422.377.94.377 1.553 0 .708-.186 1.347-.556 1.918-.367.571-.904 1.025-1.611 1.362-.703.336-1.558.504-2.563.504-.938 0-1.75-.15-2.436-.453-.682-.303-1.218-.725-1.611-1.266-.387-.541-.607-1.17-.658-1.886h1.636c.043.495.209.904.499 1.228.294.32.665.558 1.112.715.452.154.938.23 1.458.23.605 0 1.148-.097 1.63-.293.481-.2.863-.478 1.144-.831a1.97 1.97 0 0 0 .422-1.253c0-.435-.122-.789-.365-1.061a2.675 2.675 0 0 0-.958-.665 10.13 10.13 0 0 0-1.285-.448l-1.611-.46c-1.023-.294-1.832-.713-2.429-1.259-.597-.545-.895-1.26-.895-2.141 0-.733.198-1.372.595-1.918.4-.55.937-.976 1.61-1.278.678-.307 1.434-.46 2.269-.46.844 0 1.594.15 2.25.453.657.299 1.177.708 1.56 1.227.388.52.592 1.11.614 1.771h-1.534zm8.231 10.023c-.946 0-1.762-.209-2.448-.627a4.205 4.205 0 0 1-1.579-1.764c-.366-.758-.55-1.64-.55-2.646s.184-1.892.55-2.66c.371-.77.886-1.371 1.547-1.802.665-.434 1.44-.652 2.327-.652.511 0 1.016.086 1.515.256.498.17.952.447 1.361.83.409.38.735.883.978 1.51.243.626.364 1.397.364 2.313v.64h-7.568v-1.304h6.034c0-.554-.111-1.049-.332-1.483a2.508 2.508 0 0 0-.933-1.03c-.401-.25-.874-.377-1.419-.377-.601 0-1.121.15-1.56.448a2.947 2.947 0 0 0-1.004 1.15c-.234.473-.351.98-.351 1.522v.869c0 .742.128 1.37.383 1.886.26.511.62.901 1.081 1.17.46.264.995.396 1.604.396a3.27 3.27 0 0 0 1.074-.166c.324-.116.603-.286.837-.512.235-.23.416-.515.544-.856l1.457.409a3.228 3.228 0 0 1-.773 1.304c-.363.37-.81.66-1.343.869-.532.205-1.131.307-1.796.307zm10.477 0c-.946 0-1.762-.209-2.449-.627a4.203 4.203 0 0 1-1.578-1.764c-.367-.758-.55-1.64-.55-2.646s.183-1.892.55-2.66c.37-.77.886-1.371 1.546-1.802.665-.434 1.441-.652 2.327-.652.512 0 1.017.086 1.515.256.499.17.953.447 1.362.83.409.38.735.883.978 1.51.242.626.364 1.397.364 2.313v.64h-7.568v-1.304h6.034c0-.554-.111-1.049-.333-1.483a2.501 2.501 0 0 0-.933-1.03c-.4-.25-.873-.377-1.419-.377-.601 0-1.121.15-1.559.448a2.94 2.94 0 0 0-1.004 1.15c-.234.473-.352.98-.352 1.522v.869c0 .742.128 1.37.384 1.886.26.511.62.901 1.08 1.17.46.264.995.396 1.605.396a3.26 3.26 0 0 0 1.073-.166c.324-.116.603-.286.838-.512a2.33 2.33 0 0 0 .543-.856l1.458.409a3.241 3.241 0 0 1-.774 1.304c-.362.37-.81.66-1.342.869-.533.205-1.132.307-1.796.307zm11.627-13.296h1.892l4.449 10.867h.153l4.449-10.867h1.892V75.07h-1.483v-9.946h-.128l-4.091 9.946h-1.432l-4.09-9.946h-.128v9.946h-1.483V61.98zm19.797 13.296c-.886 0-1.664-.211-2.333-.633-.664-.422-1.184-1.012-1.559-1.77-.371-.76-.556-1.645-.556-2.66 0-1.022.185-1.915.556-2.678.375-.763.895-1.355 1.559-1.777.669-.422 1.447-.633 2.333-.633.887 0 1.662.211 2.327.633.669.422 1.189 1.014 1.56 1.777.375.763.562 1.656.562 2.678 0 1.015-.187 1.9-.562 2.66-.371.758-.891 1.348-1.56 1.77-.665.422-1.44.633-2.327.633zm0-1.355c.674 0 1.228-.173 1.662-.518.435-.345.757-.799.966-1.362a5.231 5.231 0 0 0 .313-1.828c0-.656-.105-1.267-.313-1.834a3.092 3.092 0 0 0-.966-1.374c-.434-.35-.988-.525-1.662-.525-.673 0-1.227.175-1.661.525-.435.349-.757.807-.966 1.374a5.285 5.285 0 0 0-.313 1.834c0 .657.105 1.266.313 1.828.209.563.531 1.017.966 1.362.434.345.988.518 1.661.518zm6.752 1.15v-9.818h1.457v1.483h.103c.179-.486.503-.88.971-1.182a2.863 2.863 0 0 1 1.586-.454c.11 0 .249.002.415.006.166.004.292.01.377.02v1.533a4.418 4.418 0 0 0-.351-.057 3.456 3.456 0 0 0-.569-.045c-.478 0-.904.1-1.279.3-.37.197-.664.47-.882.819-.213.345-.319.74-.319 1.182v6.213h-1.509zm10.515.205c-.946 0-1.762-.209-2.448-.627a4.205 4.205 0 0 1-1.579-1.764c-.366-.758-.55-1.64-.55-2.646s.184-1.892.55-2.66c.371-.77.886-1.371 1.547-1.802.665-.434 1.44-.652 2.327-.652.511 0 1.016.086 1.515.256.498.17.952.447 1.361.83.409.38.735.883.978 1.51.243.626.364 1.397.364 2.313v.64h-7.568v-1.304h6.034c0-.554-.111-1.049-.332-1.483a2.508 2.508 0 0 0-.933-1.03c-.401-.25-.874-.377-1.419-.377-.601 0-1.121.15-1.56.448a2.947 2.947 0 0 0-1.004 1.15c-.234.473-.351.98-.351 1.522v.869c0 .742.128 1.37.383 1.886.26.511.62.901 1.081 1.17.46.264.995.396 1.604.396a3.27 3.27 0 0 0 1.074-.166c.324-.116.603-.286.837-.512.235-.23.416-.515.544-.856l1.457.409a3.228 3.228 0 0 1-.773 1.304c-.363.37-.81.66-1.343.869-.532.205-1.131.307-1.796.307zm7.69-13.296v1.151c0 .35-.064.722-.192 1.119a4.634 4.634 0 0 1-.55 1.144 4.037 4.037 0 0 1-.869.959l-.818-.665c.268-.384.5-.782.696-1.195a3.04 3.04 0 0 0 .301-1.337V61.98h1.432zm3.272 0v1.151c0 .35-.064.722-.191 1.119a4.634 4.634 0 0 1-.55 1.144 4.08 4.08 0 0 1-.869.959l-.819-.665c.269-.384.501-.782.697-1.195.2-.418.301-.863.301-1.337V61.98h1.431z" fill="#CCC"/><path d="M.708 89.96a1 1 0 0 0 1.584 1.22L.708 89.96zm473.201 1.606a1 1 0 0 0 1.087-.905l.82-8.962a1 1 0 0 0-1.992-.182l-.729 7.966-7.967-.728a.999.999 0 1 0-.182 1.991l8.963.82zM1.5 90.57l.792.61.002-.001.008-.01.035-.045.146-.184c.132-.165.332-.41.602-.733a88.464 88.464 0 0 1 2.464-2.809c2.211-2.425 5.574-5.9 10.163-10.072C24.89 68.98 38.97 57.837 58.557 46.689 97.723 24.398 158.928 2.07 247 2.07v-2C158.572.07 97.027 22.493 57.568 44.951 37.842 56.18 23.642 67.411 14.366 75.846 9.73 80.064 6.322 83.582 4.071 86.051a90.487 90.487 0 0 0-2.52 2.873 48.663 48.663 0 0 0-.838 1.03l-.003.004c-.001 0-.002.002.79.612zM247 2.07c76.045 0 132.62 22.313 170.177 44.61 18.78 11.15 32.807 22.297 42.132 30.65 4.663 4.177 8.15 7.655 10.468 10.085a109.96 109.96 0 0 1 2.602 2.815c.288.323.502.57.644.736l.159.185.038.046a.304.304 0 0 0 .009.01l.002.003.769-.64c.769-.64.768-.64.767-.641a.395.395 0 0 1-.015-.018l-.043-.051-.169-.198a54.866 54.866 0 0 0-.667-.761c-.59-.664-1.473-1.634-2.649-2.867-2.351-2.465-5.876-5.979-10.58-10.193-9.409-8.428-23.539-19.655-42.446-30.88C380.38 22.507 323.455.07 247 .07v2z" fill="#CCC"/></svg>