<svg width="40" height="40" fill="none" xmlns="http://www.w3.org/2000/svg"><path fill-rule="evenodd" clip-rule="evenodd" d="M0 20C0 8.954 8.954 0 20 0s20 8.954 20 20-8.954 20-20 20S0 31.046 0 20z" fill="#2878B7"/><path fill-rule="evenodd" clip-rule="evenodd" d="M14.134 15.315H9.602v13.618h4.532V15.315zm.298-4.213c-.029-1.335-.984-2.352-2.534-2.352-1.55 0-2.564 1.017-2.564 2.352 0 1.308.983 2.354 2.505 2.354h.029c1.58 0 2.564-1.046 2.564-2.354zM30.48 21.125c0-4.183-2.236-6.13-5.219-6.13-2.406 0-3.484 1.322-4.085 2.25v-1.93h-4.533c.06 1.279 0 13.619 0 13.619h4.533v-7.606c0-.406.03-.813.15-1.104.327-.813 1.073-1.655 2.325-1.655 1.64 0 2.296 1.249 2.296 3.079v7.286h4.533v-7.809z" fill="#fff"/></svg>