<svg width="40" height="40" fill="none" xmlns="http://www.w3.org/2000/svg"><g clip-path="url(#a)"><path d="M0 0v40h40V0H0zm33.23 9.477-2.144 2.056a.628.628 0 0 0-.239.603v15.112a.628.628 0 0 0 .239.602l2.095 2.056v.452H22.642v-.451l2.17-2.107c.214-.213.214-.276.214-.602V14.983L18.993 30.31h-.816L11.15 14.983v10.272a1.417 1.417 0 0 0 .39 1.179l2.822 3.424v.452H6.359v-.452l2.823-3.425a1.366 1.366 0 0 0 .364-1.178V13.377a1.038 1.038 0 0 0-.34-.877L6.699 9.477v-.451h7.79l6.022 13.206 5.294-13.206h7.427v.451z" fill="#fff"/></g><defs><clipPath id="a"><rect width="40" height="40" rx="20" fill="#fff"/></clipPath></defs></svg>