<svg width="40" height="40" fill="none" xmlns="http://www.w3.org/2000/svg"><g fill-rule="evenodd" clip-rule="evenodd"><path d="M0 20C0 8.954 8.954 0 20 0s20 8.954 20 20-8.954 20-20 20S0 31.046 0 20z" fill="#2F89CE"/><path d="M13.393 16.918c-2.004.875-4.062 1.773-5.945 2.81-.983.72.324 1.229 1.55 1.706.194.076.387.151.568.226l.46.145c1.363.434 2.883.919 4.206.19 2.174-1.248 4.225-2.692 6.275-4.135.672-.472 1.343-.945 2.019-1.41l.106-.069c.575-.373 1.87-1.212 1.391-.056-1.132 1.238-2.345 2.334-3.564 3.436-.821.742-1.646 1.488-2.451 2.281-.701.57-1.43 1.715-.644 2.513 1.808 1.266 3.645 2.501 5.48 3.736.597.401 1.195.803 1.79 1.206 1.01.806 2.59.154 2.812-1.107.098-.58.197-1.16.297-1.739.548-3.204 1.096-6.409 1.58-9.623.066-.504.14-1.009.215-1.513.181-1.223.362-2.447.419-3.676-.146-1.226-1.633-.957-2.461-.68-4.254 1.618-8.466 3.357-12.661 5.126l-1.442.633z" fill="#fff"/></g></svg>