<svg width="914" height="193" fill="none" xmlns="http://www.w3.org/2000/svg"><g filter="url(#a)"><rect x="7" y="9.25" width="900" height="174" rx="16" stroke="#565656" stroke-dasharray="8 8" shape-rendering="crispEdges"/></g><circle cx="539" cy="9.25" r="9" fill="#565656"/><circle cx="539" cy="9.25" r="5" fill="#fff"/><circle cx="57" cy="9.25" r="9" fill="#565656"/><circle cx="57" cy="9.25" r="5" fill="#fff"/><circle cx="57" cy="183.25" r="9" fill="#565656"/><circle cx="57" cy="183.25" r="5" fill="#fff"/><circle cx="539" cy="183.25" r="9" fill="#565656"/><circle cx="539" cy="183.25" r="5" fill="#fff"/><path d="M48.5 8.384a1 1 0 0 1 0 1.732l-7.5 4.33a1 1 0 0 1-1.5-.866V4.92a1 1 0 0 1 1.5-.866l7.5 4.33zM528.5 8.384a1 1 0 0 1 0 1.732l-7.5 4.33a1 1 0 0 1-1.5-.866V4.92a1 1 0 0 1 1.5-.866l7.5 4.33zM549.5 182.384a1 1 0 0 0 0 1.732l7.5 4.33a1 1 0 0 0 1.5-.866v-8.66a1 1 0 0 0-1.5-.866l-7.5 4.33zM67.5 182.384a1 1 0 0 0 0 1.732l7.5 4.33a1 1 0 0 0 1.5-.866v-8.66a1 1 0 0 0-1.5-.866l-7.5 4.33z" fill="#565656"/><defs><filter id="a" x=".5" y="2.75" width="913" height="187" filterUnits="userSpaceOnUse" color-interpolation-filters="sRGB"><feFlood flood-opacity="0" result="BackgroundImageFix"/><feColorMatrix in="SourceAlpha" values="0 0 0 0 0 0 0 0 0 0 0 0 0 0 0 0 0 0 127 0" result="hardAlpha"/><feOffset/><feGaussianBlur stdDeviation="3"/><feComposite in2="hardAlpha" operator="out"/><feColorMatrix values="0 0 0 0 1 0 0 0 0 1 0 0 0 0 1 0 0 0 0.55 0"/><feBlend in2="BackgroundImageFix" result="effect1_dropShadow_1537_2251"/><feBlend in="SourceGraphic" in2="effect1_dropShadow_1537_2251" result="shape"/></filter></defs></svg>