<svg width="428" height="438" fill="none" xmlns="http://www.w3.org/2000/svg"><g clip-path="url(#a)"><path d="M0 12.72c0-4.405 0-6.607.844-8.296a8 8 0 0 1 3.58-3.58C6.113 0 8.315 0 12.72 0h402.56c4.405 0 6.607 0 8.296.844a7.996 7.996 0 0 1 3.58 3.58C428 6.113 428 8.315 428 12.72v412.56c0 4.405 0 6.607-.844 8.296a7.991 7.991 0 0 1-3.58 3.58c-1.689.844-3.891.844-8.296.844H12.72c-4.405 0-6.607 0-8.296-.844a7.996 7.996 0 0 1-3.58-3.58C0 431.887 0 429.685 0 425.28V12.72z" fill="#fff"/><g filter="url(#b)"><path fill-rule="evenodd" clip-rule="evenodd" d="M344.878 76.44c57.636.727 69.366 81.691 99.376 130.896 22.564 36.996 52.743 70.002 49.506 113.214-3.934 52.526-19.55 113.273-68.016 133.918-47.446 20.21-93.63-22.553-139.884-45.359-45.329-22.349-107.947-32.606-118.481-82.029-10.485-49.191 45.864-81.242 74.933-122.289 33.3-47.021 44.947-129.077 102.566-128.35z" fill="#F0ECFF"/></g><g filter="url(#c)"><path fill-rule="evenodd" clip-rule="evenodd" d="M212.416-107.082c36.646-13.248 57.647 45.719 90.328 66.925C354.087-6.84 467.097-9.802 454.598 50.065 440.99 115.24 334.534 87.308 271.57 109.15c-21.016 7.291-39.186 15.13-59.154 24.928-60.664 29.769-109.288 110.544-173.41 89.195C-23.627 202.419-74.2 106.42-39.916 50.065-1.363-13.303 107.104 47.03 170.1 7.797c36.036-22.442 2.386-100.443 42.317-114.879z" fill="#FFFAEC"/></g><g filter="url(#d)"><path fill-rule="evenodd" clip-rule="evenodd" d="M-22.383 296.382c4.136-48.032 19.179-95.7 63.614-114.27 69.406-29.005 164.718-61.764 204.059 2.408 38.114 62.169-50.108 116.589-96.743 172.641-39.049 46.935-73.615 121.658-131.103 101.217-57.863-20.575-45.101-100.74-39.827-161.996z" fill="#DFECFE"/></g></g><defs><filter id="b" x="67.976" y="-21.684" width="524.145" height="579.549" filterUnits="userSpaceOnUse" color-interpolation-filters="sRGB"><feFlood flood-opacity="0" result="BackgroundImageFix"/><feBlend in="SourceGraphic" in2="BackgroundImageFix" result="shape"/><feGaussianBlur stdDeviation="49.06" result="effect1_foregroundBlur_247_11367"/></filter><filter id="c" x="-227.39" y="-285.39" width="859.336" height="688.6" filterUnits="userSpaceOnUse" color-interpolation-filters="sRGB"><feFlood flood-opacity="0" result="BackgroundImageFix"/><feBlend in="SourceGraphic" in2="BackgroundImageFix" result="shape"/><feGaussianBlur stdDeviation="88.195" result="effect1_foregroundBlur_247_11367"/></filter><filter id="d" x="-140.427" y="34.426" width="508.098" height="540.486" filterUnits="userSpaceOnUse" color-interpolation-filters="sRGB"><feFlood flood-opacity="0" result="BackgroundImageFix"/><feBlend in="SourceGraphic" in2="BackgroundImageFix" result="shape"/><feGaussianBlur stdDeviation="56.535" result="effect1_foregroundBlur_247_11367"/></filter><clipPath id="a"><path d="M0 12.72c0-4.405 0-6.607.844-8.296a8 8 0 0 1 3.58-3.58C6.113 0 8.315 0 12.72 0h402.56c4.405 0 6.607 0 8.296.844a7.996 7.996 0 0 1 3.58 3.58C428 6.113 428 8.315 428 12.72v412.56c0 4.405 0 6.607-.844 8.296a7.991 7.991 0 0 1-3.58 3.58c-1.689.844-3.891.844-8.296.844H12.72c-4.405 0-6.607 0-8.296-.844a7.996 7.996 0 0 1-3.58-3.58C0 431.887 0 429.685 0 425.28V12.72z" fill="#fff"/></clipPath></defs></svg>
